<?xml version="1.0" standalone="no"?><!DOCTYPE svg PUBLIC "-//W3C//DTD SVG 1.1//EN" "http://www.w3.org/Graphics/SVG/1.1/DTD/svg11.dtd"><svg t="1750543408311" class="icon" viewBox="0 0 1024 1024" version="1.1" xmlns="http://www.w3.org/2000/svg" p-id="3484" xmlns:xlink="http://www.w3.org/1999/xlink" width="200" height="200"><path d="M509 81c246.319 0 446 199.681 446 446 0 59.382-11.605 116.053-32.67 167.87-0.724 3.856-2.247 7.69-4.682 11.298l-0.292 0.447C848.256 863.485 691.418 973 509 973c-187.815 0-348.516-116.092-414.257-280.432-1.697-2.871-2.962-6.12-3.66-9.712l0.09 0.49C72.958 634.693 63 582.009 63 527c0-35.223 4.083-69.492 11.802-102.36l0.011 0.005c4.757-23.857 11.425-48.248 20.166-73.327a29.839 29.839 0 0 1 9.16-13.183c0.901-1.42 1.867-2.947 2.87-4.54 43.076-89.382 115.087-162.194 203.88-206.29a590.377 590.377 0 0 1 16.919-8.847c3.79-3.383 8.574-5.869 14.198-6.96l2.303-0.47c2.142-0.452 5.02-1.087 8.288-1.82l-0.005-0.012C401.262 90.967 453.967 81 509 81zM371.036 671.615l-0.001 94.43 1.38 119.335 0.198 0.06c42.25 12.718 81.943 18.663 120.35 19.012l1.515 0.01 2.428 0.006c33.759-0.03 63.592-3.997 100.068-12.024l0.046-0.009-225.984-220.82z m467.312 48.353L522.41 723.62 673.27 874.48l1.452-0.778c39.38-21.156 71.987-45.375 99.623-72.721l1.72-1.713c23.85-23.892 42.14-47.792 62.257-79.26l0.026-0.04zM308.513 528.621l-50.651 50.651-99.397 101.725c20.874 38.84 44.727 71.09 71.623 98.48l1.064 1.08 1.713 1.72c23.892 23.85 47.792 42.14 79.26 62.257l-0.863-0.554v-77.475l-2.749-237.884z m248.922-141.057l-113.532 1.313-76.327 78.113 1.377 119.018 80.545 78.702c0.148-0.008 0.298-0.014 0.447-0.02l0.79-0.018 117.489-1.359 69.79-71.423a31.688 31.688 0 0 1-0.225-2.805l-0.019-0.79-1.43-123.631-78.905-77.1z m319.593 45.25l-220.82 225.984h213.348l0.477-1.577c12.885-42.805 18.818-82.987 19.022-121.865l0.006-2.428c-0.03-33.759-3.997-63.592-12.024-100.068l-0.009-0.046zM358.219 391.04H256.807l-109.899 1.268a383.22 383.22 0 0 0-13.751 45.357l0.01 0.005c-5.174 26.373-7.664 51.862-7.795 76.812l-0.006 2.429c0.03 33.758 3.997 63.591 12.024 100.067l-0.318-1.45 78.253-78.253 142.894-146.235zM693.594 201.02v45.351l3.123 270.25L847.578 365.76l-0.778-1.452c-21.156-39.38-45.375-71.988-72.721-99.623l-1.713-1.72c-23.892-23.851-47.792-42.141-79.26-62.257l0.488 0.312z m-185.643-55.24c-33.758 0.03-63.592 3.997-100.068 12.024l0.206-0.045 13.177 13.177L633.82 378.631V246.79l-0.946-81.791-0.63-0.19c-42.249-12.718-81.943-18.662-120.35-19.011l-1.515-0.011z m-164.857 32.342a384.574 384.574 0 0 0-4.975 2.414c-37.644 20.66-69.016 44.179-95.738 70.621l-1.72 1.713c-23.851 23.892-42.141 47.792-62.257 79.26l0.552-0.863h77.475l237.885-2.748-115.044-115.044z" fill="#333333" p-id="3485"></path></svg>